PathFileType	4	(X/Y/Z)	Patient4_TMGait_0pt8_01_right_33.trc.trc
DataRate	CameraRate	NumFrames	NumMarkers	Units	OrigDataRate	OrigDataStartFrame	OrigNumFrames
89.743589743590	89.743589743590	4	33	mm	89.743589743590	106	       141
Frame#	Time	Sacral			L.Shoulder			Chest			R.Shoulder			Neck			R.ASIS			L.ASIS			R.Thigh.Superior			R.Thigh.Lateral			R.Thigh.Inferior			R.Patella			L.Thigh.Superior			L.Thigh.Lateral			L.Thigh.Inferior			L.Patella			L.Shank.Superior			L.Shank.Lateral			L.Shank.Inferior			R.Shank.Superior			R.Shank.Lateral			R.Shank.Inferior			R.Heel			R.Midfoot.Superior			R.Midfoot.Lateral			R.Toe			L.Heel			L.Midfoot.Lateral			L.Midfoot.Superior			L.Toe			L.Elbow			L.Wrist			R.Elbow			R.Wrist			
		X1	Y1	Z1	X2	Y2	Z2	X3	Y3	Z3	X4	Y4	Z4	X5	Y5	Z5	X6	Y6	Z6	X7	Y7	Z7	X8	Y8	Z8	X9	Y9	Z9	X10	Y10	Z10	X11	Y11	Z11	X12	Y12	Z12	X13	Y13	Z13	X14	Y14	Z14	X15	Y15	Z15	X16	Y16	Z16	X17	Y17	Z17	X18	Y18	Z18	X19	Y19	Z19	X20	Y20	Z20	X21	Y21	Z21	X22	Y22	Z22	X23	Y23	Z23	X24	Y24	Z24	X25	Y25	Z25	X26	Y26	Z26	X27	Y27	Z27	X28	Y28	Z28	X29	Y29	Z29	X30	Y30	Z30	X31	Y31	Z31	X32	Y32	Z32	X33	Y33	Z33	

106	38.130000000000	848.381484168401	1012.038071759161	441.826532558497	1041.492705975437	1443.313514044429	277.265334833303	1137.301970181996	1369.233891693958	440.486964786929	1045.551348380315	1437.159933244939	613.500547796809	1020.911018075578	1499.514308265294	436.230556530309	1072.494438819155	948.623599714149	564.453976574091	1066.442038896773	967.348114680039	291.039893581961	1168.734437974943	799.659976594166	528.865193418388	1148.170683145508	675.000190242645	605.030479882948	1240.340762568018	647.146993968310	523.993040065323	1274.487573448604	537.719718221454	546.174313732055	1101.742426079167	747.400698882217	320.136322103732	1002.264608612524	638.385800565587	259.395797475527	1077.873251401908	553.988248525509	324.810658817075	1072.066924667469	485.694874004273	335.538794389949	1043.445667300749	415.175739398912	326.859087123340	948.621771728652	303.878805427593	280.002048978518	997.165041907241	191.835318989185	350.893907741631	1209.608959462818	453.122999289187	554.204631733841	1095.562654109026	394.895018478384	613.373486909566	1100.370908950473	284.407587702223	565.702296403382	913.076148987888	195.749362863681	534.897747988650	1086.959000458870	157.683065667523	581.143060406577	976.998908376792	143.172936757735	609.825634425620	1162.115625120618	51.248507825268	606.636319675152	866.152656777339	38.041740641844	399.292890731417	934.318246676329	35.631949929197	313.368931124407	1018.987730395723	96.713021567604	335.993425295757	1145.245319659351	45.775305958145	297.160542273085	1077.497881323674	1108.699940750973	121.459225207974	1252.350353615772	912.662224047479	135.513564248635	1000.872750719293	1084.197433464057	711.890946603811	1189.391908694075	905.220319905570	711.186657266712	
107	38.141142857143	847.686339471367	1011.918299296369	441.119255061815	1042.245053523015	1443.705753918403	277.711377411768	1137.096305658196	1368.914798256148	441.143797657666	1044.647965472907	1436.309434540813	613.921181786333	1020.825313377846	1499.431461596637	436.747294774855	1071.665738922829	949.097485727821	564.432834035856	1066.063713072662	967.177550110655	290.846009880419	1168.690030623160	801.726437936951	529.090254997654	1149.257505342434	676.780026633468	605.569470929066	1241.584149055290	649.742513142255	524.642166283301	1277.670858277336	542.327312270251	547.164845153941	1098.629737687740	746.076881497789	320.747949105263	997.931172071477	638.228290121088	259.212281865247	1071.817685309945	552.858708513347	325.018708300108	1065.008775793504	484.846976436276	335.651820215159	1036.261938754975	414.615060732432	326.907820126995	940.965031223157	303.784805259934	279.945135359956	988.646472458263	191.514097398369	351.016052913912	1217.055402329034	455.699297623261	555.501793089632	1107.248319203129	390.867688076204	615.318573833086	1118.478022188122	280.786677452738	567.655736879037	936.873301880126	180.639283685787	537.421269099067	1112.922223198228	153.648901022512	583.707540406114	1004.026507806712	132.563890008732	612.599984904345	1194.465835164296	52.231288503542	609.701894784107	857.180162804836	38.045882372633	399.273865327234	925.325676072635	35.623699782150	313.377936904194	1010.058821152043	96.659005117985	336.043294635531	1136.279472027861	45.623935056493	297.164223127814	1085.500311150010	1111.375933500955	120.134215641782	1272.247658787941	926.884971170985	136.334866598069	994.513352471312	1083.520405927849	711.112906919074	1165.454680073505	887.058546546417	714.737067283270	
108	38.152285714286	847.154097759229	1011.692171226046	440.517608962408	1043.104300513365	1443.971040374257	278.265128506236	1137.057439645766	1368.426689605510	441.847286284667	1044.017798580404	1435.309241750833	614.423744129713	1020.875362571429	1499.206149083249	437.358455989671	1071.012084150578	949.377715423406	564.502794019819	1065.811611870658	966.863067503436	290.722550903953	1168.396267295312	803.013343744481	529.458111637681	1149.572678543821	677.830597069317	606.215918578277	1241.945441197590	651.305208582568	525.423744255884	1279.710363674939	546.132515674948	548.223568052687	1095.540414711332	744.677808492942	321.487164117351	993.694070897182	638.008111605003	259.078089715776	1065.837051774244	551.700551140646	325.249371723368	1058.046047455248	483.991226769210	335.755785753615	1029.138112455248	414.026522606712	326.974445488490	933.360692186807	303.687809658430	279.893826618962	980.117049038527	191.180267447349	351.161261858057	1223.630046365277	457.748865050921	556.880459081014	1118.828748428626	386.343248046486	617.606611096644	1136.592105954929	277.114522727150	569.820326925025	961.702354896900	165.415845089997	540.463558898473	1139.257293857770	149.968030632442	586.337887182893	1032.014307763013	122.201411565369	615.713593296914	1227.084129807289	54.246275713985	612.662847042349	848.221025469251	38.068629590500	399.251478240838	916.337952176558	35.618875107942	313.390724587448	1001.135590946564	96.597910660028	336.099193806205	1127.312969557083	45.457711851050	297.174770308819	1093.090990234064	1114.025749403616	119.073710455251	1291.045343729187	941.986124025887	137.592099015917	988.695650000511	1082.799001092041	710.544738653681	1140.678517953293	871.012231033440	718.074230947053	
109	38.163428571429	846.808370710770	1011.335495444331	440.034695670562	1044.043820136868	1444.091006433487	278.930676095848	1137.177934848515	1367.767758235122	442.600915441731	1043.658262462766	1434.168678484708	615.015341941019	1021.055809927299	1498.828235252510	438.061824565596	1070.561111835325	949.450234449735	564.662213591195	1065.694310454021	966.408564917226	290.670089397440	1167.875900958672	803.469439643184	529.960647073410	1149.141827702250	678.121436397672	606.989107980980	1241.441030248077	651.795648230698	526.330938874980	1280.632638625338	549.081334452760	549.310154960210	1092.512147690754	743.206255316426	322.276084313992	989.531557324517	637.729819765152	258.983882392476	1059.938493393303	550.515409631289	325.467031770060	1051.186765826618	483.124176145009	335.829988056733	1022.077300089671	413.415354773820	327.042526966843	925.805658598471	303.595286368713	279.841698762567	971.591325500565	190.840657526638	351.312067005063	1229.306313301284	459.259696032511	558.302841310649	1130.249925420937	381.437450209254	620.189201494133	1154.542482203657	273.527415251737	572.116410728859	987.367562322669	150.380853486810	543.959309022149	1165.698694431011	146.849240812617	588.926552639980	1060.729289330607	112.351621289015	619.062100594228	1259.610933637552	57.481654573503	615.330100473246	839.273159567581	38.114489534494	399.227717129191	907.356577640099	35.619651518760	313.405887853456	992.220446502353	96.528969948863	336.155285705828	1118.348448180327	45.269158645693	297.189798701572	1100.315726348390	1116.597490679366	118.280004710442	1308.655103418364	957.819303631480	139.245691580238	983.254801811634	1082.074284725298	710.146203662206	1115.375826601051	857.231882263252	721.177389247065	
